<?xml version="1.0" standalone="no"?><!-- Generator: Gravit.io --><svg xmlns="http://www.w3.org/2000/svg" xmlns:xlink="http://www.w3.org/1999/xlink" style="isolation:isolate" viewBox="28.5 730 51.5 46" width="51.5" height="46"><g opacity="0.87"><path d=" M 77.1389 730 L 31.3611 730 C 29.7789 730 28.5 731.1449 28.5 732.5556 L 28.5 773.4444 C 28.5 774.8551 29.7789 776 31.3611 776 L 56.0096 776 L 56.0096 758.2133 L 49.3203 758.2133 L 49.3203 751.2494 L 56.0096 751.2494 L 56.0096 746.1383 C 56.0096 740.1967 60.0724 736.9588 66.0235 736.9588 C 68.0234 736.9537 70.0262 737.0457 72.0175 737.2322 L 72.0175 743.4167 L 67.9118 743.4167 C 64.6845 743.4167 64.055 744.7916 64.055 746.8028 L 64.055 751.2367 L 71.7714 751.2367 L 70.7701 758.2006 L 64.0522 758.2006 L 64.0522 776 L 77.1389 776 C 78.7211 776 80 774.8551 80 773.4444 L 80 732.5556 C 80 731.1449 78.7211 730 77.1389 730 Z " fill="rgb(41,41,149)"/></g></svg>