<?xml version="1.0" standalone="no"?><!-- Generator: Gravit.io --><svg xmlns="http://www.w3.org/2000/svg" xmlns:xlink="http://www.w3.org/1999/xlink" style="isolation:isolate" viewBox="119.375 730 58.625 46" width="58.625" height="46"><path d=" M 148.6875 730 C 132.4971 730 119.375 740.5569 119.375 753.5822 C 119.375 763.9996 127.7714 772.84 139.4212 775.9609 C 140.8877 776.1737 141.4167 775.4479 141.4167 774.8237 C 141.4167 774.2633 141.3932 772.7785 141.3844 770.8137 C 133.2289 772.2371 131.5067 767.6502 131.5067 767.6502 C 130.1784 764.9264 128.2534 764.2006 128.2534 764.2006 C 125.5937 762.737 128.4562 762.7701 128.4562 762.7701 C 131.4009 762.9356 132.9439 765.2007 132.9439 765.2007 C 135.5595 768.804 139.8091 767.7637 141.4725 767.1608 C 141.74 765.6357 142.5041 764.5954 143.3387 764.0067 C 136.832 763.4132 129.9903 761.3893 129.9903 752.3504 C 129.9903 749.7803 131.1335 747.6713 132.9997 746.0257 C 132.7029 745.4275 131.689 743.0277 133.2906 739.7838 C 133.2906 739.7838 135.7505 739.1477 141.3491 742.1978 C 143.6943 741.6752 146.1953 741.4128 148.6846 741.4033 C 151.1797 741.4128 153.6836 741.6752 156.02 742.1978 C 161.6216 739.1454 164.0785 739.7838 164.0785 739.7838 C 165.6802 743.0277 164.6751 745.4275 164.3694 746.0257 C 166.2503 747.6713 167.3788 749.7779 167.3788 752.3504 C 167.3788 761.413 160.5312 763.4038 154.001 763.9878 C 155.0443 764.716 155.9848 766.1535 155.9848 768.3524 C 155.9848 771.5065 155.9495 774.0505 155.9495 774.8237 C 155.9495 775.455 156.4726 776.1879 157.9685 775.9562 C 169.6124 772.8305 178 763.9972 178 753.5822 C 178 740.5569 164.8779 730 148.6875 730 Z " fill-rule="evenodd" fill="rgb(93,93,93)"/></svg>