<?xml version="1.0" standalone="no"?><!-- Generator: Gravit.io --><svg xmlns="http://www.w3.org/2000/svg" xmlns:xlink="http://www.w3.org/1999/xlink" style="isolation:isolate" viewBox="217.375 730 46.505 46" width="46.505" height="46"><linearGradient id="_lgradient_0" x1="0" y1="0.5" x2="1" y2="0.5" gradientTransform="matrix(46.5047,0,0,46,217.375,730)" gradientUnits="userSpaceOnUse"><stop offset="0.43478260869565216%" stop-opacity="1" style="stop-color:rgb(2,255,171)"/><stop offset="34.34782608695652%" stop-opacity="1" style="stop-color:rgb(255,0,102)"/><stop offset="67.82608695652173%" stop-opacity="1" style="stop-color:rgb(251,226,3)"/><stop offset="100%" stop-opacity="1" style="stop-color:rgb(1,251,255)"/></linearGradient><path d=" M 263.6846 754.6564 C 262.9616 752.5036 260.635 751.3326 258.4633 752.0127 L 254.2491 753.3729 C 253.3324 750.563 252.3512 747.5741 251.4293 744.7693 C 251.4319 744.7668 251.4371 744.7668 251.4448 744.7642 C 251.4422 744.7591 251.4371 744.7489 251.4345 744.7438 C 253.9728 743.9307 255.5996 743.4066 255.5996 743.4066 C 257.7739 742.6881 258.9566 740.3845 258.2723 738.2342 C 257.5466 736.0814 255.2149 734.9104 253.0432 735.5905 L 248.8574 736.9379 C 248.044 734.4425 247.5172 732.8369 247.5172 732.8369 C 246.7916 730.6841 244.4676 729.5131 242.2908 730.1932 C 240.1165 730.9091 238.9364 733.2127 239.6233 735.3681 L 240.9712 739.4819 L 232.2742 742.2739 C 231.4531 739.7683 230.9211 738.155 230.9211 738.155 C 230.2007 736.0047 227.8689 734.8312 225.6999 735.5113 C 223.523 736.2272 222.3404 738.5334 223.0298 740.6836 L 224.3829 744.8154 L 220.0912 746.1986 C 218.0719 746.917 216.928 749.1082 217.54 751.1843 C 218.1855 753.3729 220.5147 754.6947 222.6502 753.9763 C 222.6657 753.9763 224.3493 753.4419 226.9497 752.6058 L 229.7875 761.2631 L 229.7824 761.2631 L 229.7824 761.2682 L 225.47 762.6616 C 223.4507 763.3775 222.3068 765.5687 222.9214 767.6448 C 223.5669 769.8359 225.8909 771.1578 228.0316 770.4393 C 228.0497 770.4393 229.7333 769.8998 232.3311 769.0638 L 232.3388 769.0766 C 232.344 769.0766 232.3543 769.074 232.3595 769.0715 L 233.7513 773.308 C 234.4769 775.31 236.6899 776.4426 238.7841 775.8367 C 240.9971 775.1975 242.3295 772.8938 241.609 770.7768 C 241.609 770.7615 241.0694 769.1047 240.2327 766.5479 L 240.2327 766.5479 C 240.2301 766.5403 240.2275 766.5326 240.225 766.5249 C 243.0758 765.6096 246.1021 764.6355 248.9426 763.7176 L 250.3448 767.9823 C 251.0678 769.9817 253.2834 771.1143 255.3776 770.5109 C 257.588 769.8692 258.9256 767.5655 258.1974 765.4511 C 258.1974 765.4332 257.6577 763.7662 256.8159 761.1992 C 256.8339 761.194 256.8494 761.1889 256.8649 761.1838 C 256.8623 761.1787 256.8598 761.171 256.8572 761.1659 C 259.3852 760.3554 261.012 759.8313 261.012 759.8313 C 263.1888 759.1128 264.3715 756.8092 263.6846 754.6564 Z  M 237.6685 758.7268 C 236.7415 755.9092 235.7603 752.905 234.8358 750.0925 C 234.841 750.0925 234.8487 750.09 234.8487 750.09 C 234.8487 750.0849 234.8487 750.0798 234.8487 750.0746 C 237.684 749.1644 240.7053 748.1954 243.5328 747.2826 L 246.3681 755.9169 L 237.6685 758.7268 Z " fill="url(#_lgradient_0)"/></svg>